<svg xmlns="http://www.w3.org/2000/svg" viewBox="0 0 24 24" width="24" height="24">
  <rect width="24" height="24" fill="#3498db"/>
  
  <!-- 좌상단 큰 사각형 -->
  <rect x="2" y="2" width="7" height="7" fill="white"/>
  <rect x="3" y="3" width="5" height="5" fill="#3498db"/>
  <rect x="4" y="4" width="3" height="3" fill="white"/>
  
  <!-- 우상단 큰 사각형 -->
  <rect x="15" y="2" width="7" height="7" fill="white"/>
  <rect x="16" y="3" width="5" height="5" fill="#3498db"/>
  <rect x="17" y="4" width="3" height="3" fill="white"/>
  
  <!-- 좌하단 큰 사각형 -->
  <rect x="2" y="15" width="7" height="7" fill="white"/>
  <rect x="3" y="16" width="5" height="5" fill="#3498db"/>
  <rect x="4" y="17" width="3" height="3" fill="white"/>
  
  <!-- 중앙 패턴 -->
  <rect x="10" y="2" width="2" height="2" fill="white"/>
  <rect x="13" y="2" width="1" height="1" fill="white"/>
  <rect x="10" y="5" width="1" height="1" fill="white"/>
  <rect x="12" y="5" width="2" height="2" fill="white"/>
  <rect x="10" y="8" width="4" height="1" fill="white"/>
  <rect x="15" y="10" width="2" height="2" fill="white"/>
  <rect x="18" y="10" width="1" height="1" fill="white"/>
  <rect x="20" y="10" width="2" height="2" fill="white"/>
  <rect x="10" y="13" width="1" height="1" fill="white"/>
  <rect x="12" y="13" width="2" height="1" fill="white"/>
  <rect x="15" y="13" width="1" height="1" fill="white"/>
  <rect x="17" y="13" width="2" height="1" fill="white"/>
  <rect x="20" y="13" width="2" height="1" fill="white"/>
  <rect x="10" y="15" width="2" height="2" fill="white"/>
  <rect x="13" y="15" width="1" height="1" fill="white"/>
  <rect x="15" y="15" width="2" height="2" fill="white"/>
  <rect x="18" y="15" width="1" height="1" fill="white"/>
  <rect x="20" y="15" width="2" height="2" fill="white"/>
  <rect x="10" y="18" width="1" height="1" fill="white"/>
  <rect x="12" y="18" width="2" height="1" fill="white"/>
  <rect x="15" y="18" width="1" height="1" fill="white"/>
  <rect x="17" y="18" width="2" height="1" fill="white"/>
  <rect x="20" y="18" width="2" height="1" fill="white"/>
  <rect x="10" y="20" width="4" height="2" fill="white"/>
  <rect x="15" y="20" width="2" height="2" fill="white"/>
  <rect x="18" y="20" width="1" height="1" fill="white"/>
  <rect x="20" y="20" width="2" height="2" fill="white"/>
</svg> 